<svg t="1598027087607" class="icon" viewBox="0 0 1024 1024" version="1.1" xmlns="http://www.w3.org/2000/svg" p-id="5032" width="32" height="32"><path d="M441.7 756.4c-15.1 4.4-32 1-44.4-10.5l-160.9-150c-18.6-17.3-19.6-46.4-2.3-65s46.4-19.6 65-2.3l160.9 150c9 8.4 13.8 19.4 14.5 30.8l310-442.8c14.6-20.8 43.3-25.9 64.1-11.3 20.8 14.6 25.9 43.3 11.3 64.1l-348.7 498c-14.6 20.8-43.3 25.9-64.1 11.3-20.8-14.6-25.9-43.3-11.3-64.1l5.9-8.2z" fill="#ffffff" p-id="5033"></path><path d="M460.2 694.3c-7.5-6.9-15.6-14.3-26.9-24.7-2.1-1.9-4.3-3.9-7.2-6.6-0.1-0.1-5.7-5.2-7.3-6.7-6.1-5.5-10.6-9.7-15-13.8-25.1-23.1-44.4-40.8-63.3-58.5-7.8-7.3-15.3-14.3-22.5-21.1-25.2-23.8-47.5-45.4-67.3-65.1-18.6-18.6-44.8-21-58.2-7.6s-11 39.6 7.6 58.2c19.5 19.5 41.7 40.9 66.9 64.7 7 6.6 14.1 13.3 21.6 20.2 15.5 14.5 31.8 29.5 51 47.1 10.7 9.8 45.3 41.4 47.5 43.5 14.6 13.4 26.5 24.3 36.4 33.5 2.5-10.5 7-20.9 13.7-30.5l23-32.6z m20.9-29.7L800 209.1c24.4-34.9 69.1-47 100.5-25s35.3 68.2 10.9 103l-362.7 518c-24.4 34.9-69.1 47-100.5 25-4.9-3.5-9.2-7.5-12.8-12-1.1-0.7-2.2-1.5-3.1-2.5-13.2-13.2-32.7-31.4-69.4-65-2.3-2.1-36.8-33.7-47.5-43.5-19.3-17.7-35.6-32.8-51.2-47.3-7.5-7-14.7-13.8-21.7-20.4-25.5-24-47.9-45.7-67.7-65.4-31.8-31.8-36.2-80.5-7.6-109.1s77.3-24.2 109.1 7.6c19.5 19.5 41.5 40.8 66.5 64.4 7.2 6.8 14.6 13.8 22.4 21 18.8 17.5 38 35.3 63.1 58.2 4.5 4.1 9 8.2 15 13.8 1.6 1.5 7.3 6.7 7.3 6.7 2.9 2.7 5.1 4.6 7.2 6.6 9.4 8.6 16.7 15.3 23.3 21.4z m-19.3 131.8c1.7 2.2 3.6 4.2 5.9 5.7 14.7 10.3 38.7 3.8 53-16.7l362.7-518c14.3-20.4 12.2-45.2-2.5-55.5-14.7-10.3-38.7-3.8-53 16.7l-362.7 518c-10.5 15-12.2 32.3-6.5 44.5 1.3 1.7 2.4 3.4 3.1 5.3z" fill="#ffffff" p-id="5034"></path></svg>